<?xml version="1.0" encoding="iso-8859-1"?>
<!-- Generator: Adobe Illustrator 19.0.0, SVG Export Plug-In . SVG Version: 6.00 Build 0)  -->
<svg version="1.1" id="Layer_1" xmlns="http://www.w3.org/2000/svg" xmlns:xlink="http://www.w3.org/1999/xlink" x="0px" y="0px"
	 viewBox="0 0 512 512" style="enable-background:new 0 0 512 512;" xml:space="preserve">
<g transform="translate(1 1)">
	<g>
		<g>
			<path d="M472.6,7.533H37.4C16.067,7.533-1,24.6-1,45.933v277.333v38.4c0,21.333,17.067,38.4,38.4,38.4h152.157
				c1.209,14.852-5.492,29.407-17.331,37.547l-15.36,11.093c-1.583,0.95-2.811,2.253-3.646,3.733
				c-10.439,3.21-17.687,12.702-17.687,24.427c0,14.507,11.093,25.6,25.6,25.6h187.733c14.507,0,25.6-11.093,25.6-25.6
				c0-12.351-8.044-22.223-19.388-24.885c-0.726-1.289-1.666-2.425-2.799-3.275l-15.36-11.093
				c-12.057-8.289-18.113-22.568-17.016-37.547H472.6c21.333,0,38.4-17.067,38.4-38.4v-38.4V45.933
				C511,24.6,493.933,7.533,472.6,7.533z M16.067,45.933c0-11.947,9.387-21.333,21.333-21.333h435.2
				c11.947,0,21.333,9.387,21.333,21.333V306.2H16.067V45.933z M348.867,485.4H161.133c-5.12,0-8.533-3.413-8.533-8.533
				s3.413-8.533,8.533-8.533h1.707h184.32h1.707c5.12,0,8.533,3.413,8.533,8.533S353.987,485.4,348.867,485.4z M325.827,451.267
				H183.32c16.213-11.947,24.747-31.573,23.893-51.2h95.573C301.08,419.693,310.467,439.32,325.827,451.267z M493.933,361.667
				c0,11.947-9.387,21.333-21.333,21.333H326.68h-140.8H37.4c-11.947,0-21.333-9.387-21.333-21.333v-38.4h477.867V361.667z"/>
			<path d="M147.48,169.667l62.293-62.293c3.413-3.413,3.413-8.533,0-11.947s-8.533-3.413-11.947,0l-68.267,68.267
				c-2.56,2.56-3.413,5.973-1.707,9.387c0.853,1.707,1.707,2.56,2.56,3.413l67.413,67.413c1.707,1.707,3.413,2.56,5.973,2.56
				s4.267-0.853,5.973-2.56c3.413-3.413,3.413-8.533,0-11.947L147.48,169.667z"/>
			<path d="M379.587,162.84l-67.413-67.413c-3.413-3.413-8.533-3.413-11.947,0s-3.413,8.533,0,11.947l62.293,62.293l-62.293,62.293
				c-3.413,3.413-3.413,8.533,0,11.947c1.707,1.707,3.413,2.56,5.973,2.56s4.267-0.853,5.973-2.56l68.267-68.267
				c2.56-2.56,3.413-5.973,1.707-9.387C381.293,164.547,380.44,163.693,379.587,162.84z"/>
			<path d="M274.627,93.72c-4.267-1.707-9.387,1.707-10.24,5.973l-34.133,136.533c-1.707,4.267,1.707,9.387,5.973,10.24
				c0,0,0.853,0,1.707,0c4.267,0,7.68-2.56,8.533-5.973L280.6,103.96C282.307,99.693,278.893,94.573,274.627,93.72z"/>
		</g>
	</g>
</g>
<g>
</g>
<g>
</g>
<g>
</g>
<g>
</g>
<g>
</g>
<g>
</g>
<g>
</g>
<g>
</g>
<g>
</g>
<g>
</g>
<g>
</g>
<g>
</g>
<g>
</g>
<g>
</g>
<g>
</g>
</svg>
