<?xml version='1.0' encoding='iso-8859-1'?>
<svg version="1.1" xmlns="http://www.w3.org/2000/svg" viewBox="0 0 409.49 409.49" xmlns:xlink="http://www.w3.org/1999/xlink" enable-background="new 0 0 409.49 409.49">
  <path d="m104.525,297.374c-1.696,3.638-5.304,5.776-9.069,5.776-1.415,0-2.853-0.302-4.22-0.939l-44.339-20.676c-5.005-2.334-7.171-8.284-4.837-13.289 2.333-5.005 8.283-7.173 13.289-4.837l44.339,20.676c5.005,2.334 7.171,8.284 4.837,13.289zm-21.419-180.069h1.949v71.023c0,5.523 4.477,10 10,10s10-4.477 10-10v-71.023h99.684c32.341,0 58.653-26.312 58.653-58.652 0-5.523-4.477-10-10-10s-10,4.477-10,10c0,21.313-17.339,38.652-38.653,38.652h-121.633c-21.313,0-38.653-17.339-38.653-38.652 7.10543e-15-21.314 17.34-38.653 38.653-38.653h56.314c-8.963,10.199-14.394,23.512-14.394,38.059 0,5.523 4.477,10 10,10s10-4.477 10-10c0-20.986 17.339-38.059 38.652-38.059h142.692c21.313,0 38.652,17.339 38.652,38.653 0,21.313-17.339,38.652-38.652,38.652h-48.653c-5.523,0-10,4.477-10,10s4.477,10 10,10h26.705v71.023c0,5.523 4.477,10 10,10s10-4.477 10-10v-71.023h1.949c32.341,0 58.652-26.312 58.652-58.652-0.001-32.341-26.312-58.653-58.653-58.653h-243.264c-32.341,0-58.653,26.312-58.653,58.653-3.55271e-15,32.341 26.312,58.652 58.653,58.652zm280.662,139.456c-5.054-2.228-10.957,0.065-13.183,5.12-1.527,3.467-3.741,5.896-6.582,7.22l-24.471,11.412c-2.816,1.312-6.072,1.456-9.674,0.428-5.311-1.515-10.845,1.56-12.361,6.871s1.56,10.845 6.87,12.361c3.381,0.965 6.747,1.446 10.039,1.446 4.741,0 9.328-0.997 13.578-2.979l24.47-11.412c7.26-3.384 12.942-9.36 16.433-17.283 2.228-5.055-0.064-10.958-5.119-13.184zm-252.283,2.024l-44.339-20.675c-5.007-2.336-10.956-0.168-13.289,4.837-2.334,5.005-0.168,10.955 4.837,13.289l44.339,20.675c1.367,0.638 2.805,0.939 4.22,0.939 3.766,0 7.373-2.138 9.069-5.776 2.334-5.005 0.168-10.955-4.837-13.289zm285.972,23.704c-4.75,13.052-14.26,23.453-26.777,29.29l-35.649,16.623c-12.515,5.837-26.595,6.436-39.647,1.684-9.844-3.583-18.18-9.873-24.188-18.12l-39.346,18.347 128.91,60.111c5.005,2.334 7.171,8.284 4.837,13.289-1.696,3.638-5.304,5.776-9.069,5.776-1.416,0-2.853-0.302-4.22-0.939l-144.12-67.204-143.548,66.938c-5.004,2.336-10.955,0.169-13.289-4.837-2.334-5.005-0.168-10.955 4.837-13.289l128.338-59.845-38.773-18.08c-6.007,8.247-14.344,14.538-24.189,18.121-13.051,4.749-27.132,4.152-39.648-1.685l-56.203-26.208c-14.589-6.804-20.924-24.209-14.121-38.799l19.169-41.108c3.287-7.049 9.14-12.402 16.482-15.075 7.342-2.672 15.269-2.334 22.316,0.953l56.202,26.208c12.517,5.836 22.026,16.238 26.776,29.289 3.583,9.844 4.123,20.274 1.667,30.177l53.983,25.173 54.557-25.44c-5.836-23.577 5.617-48.824 28.44-59.467l35.647-16.624c25.926-12.086 56.851-0.832 68.939,25.091 5.839,12.518 6.437,26.599 1.687,39.65zm-263.713-11.719c-2.923-8.031-8.759-14.425-16.434-18.003l-56.203-26.208c-2.208-1.028-4.702-1.132-7.023-0.285-2.322,0.845-4.167,2.526-5.197,4.733l-19.169,41.108c-2.143,4.596-0.148,10.079 4.447,12.221l56.203,26.208c7.675,3.578 16.324,3.939 24.356,1.017 8.031-2.923 14.424-8.759 18.003-16.434 3.579-7.676 3.94-16.326 1.017-24.357zm243.902-19.478c-7.428-15.929-26.429-22.847-42.36-15.417l-35.647,16.623c-15.485,7.221-22.452,25.382-16.004,41.023 0.265,0.402 1.096,2.184 1.234,2.645 3.675,7.029 9.789,12.371 17.356,15.125 8.032,2.923 16.681,2.562 24.354-1.017l35.65-16.624c7.675-3.579 13.512-9.972 16.435-18.003 2.922-8.029 2.561-16.679-1.018-24.355z"/>
</svg>
