<?xml version="1.0" encoding="iso-8859-1"?>
<!-- Generator: Adobe Illustrator 19.0.0, SVG Export Plug-In . SVG Version: 6.00 Build 0)  -->
<svg version="1.1" id="Layer_1" xmlns="http://www.w3.org/2000/svg" xmlns:xlink="http://www.w3.org/1999/xlink" x="0px" y="0px"
	 viewBox="0 0 64 64" style="enable-background:new 0 0 64 64;" xml:space="preserve">
<g>
	<g>
		<path d="M35,21c0-4.514-5.087-9.507-5.303-9.717c-0.389-0.377-1.006-0.377-1.395,0C28.087,11.493,23,16.486,23,21
			c0,3.318,1.283,5.257,2.969,6.223l-0.963,8.666c-0.005,0.049-0.007,0.098-0.005,0.148l0.926,25.001C25.989,62.699,27.339,64,29,64
			s3.011-1.301,3.073-2.962l0.926-25.001c0.002-0.05,0-0.099-0.005-0.148l-0.963-8.666C33.717,26.257,35,24.318,35,21z
			 M29.004,13.447c0.916,1.01,2.156,2.576,3.012,4.227L31,19.197l-1.168-1.752c-0.371-0.557-1.293-0.557-1.664,0L27,19.197
			l-1.023-1.535C26.881,15.921,28.203,14.332,29.004,13.447z M30.075,60.964C30.053,61.545,29.581,62,29,62
			s-1.053-0.455-1.075-1.036l-0.923-24.927l0.903-8.127C28.269,27.971,28.636,28,29,28s0.731-0.029,1.095-0.09l0.903,8.127
			L30.075,60.964z M29,26c-2.542,0-4-1.822-4-5c0-0.337,0.041-0.681,0.112-1.029l1.056,1.584c0.371,0.557,1.293,0.557,1.664,0
			L29,19.803l1.168,1.752C30.353,21.833,30.666,22,31,22s0.646-0.167,0.832-0.445l1.053-1.58C32.959,20.324,33,20.667,33,21
			C33,24.178,31.542,26,29,26z"/>
	</g>
</g>
<g>
	<g>
		<path d="M53,21h-2.051c-0.368-7.018-4.547-13.027-10.515-16h7.75C48.598,6.161,49.698,7,51,7c1.654,0,3-1.346,3-3s-1.346-3-3-3
			c-1.302,0-2.402,0.839-2.816,2H33V1c0-0.553-0.447-1-1-1h-6c-0.553,0-1,0.447-1,1v2H9.816C9.402,1.839,8.302,1,7,1
			C5.346,1,4,2.346,4,4s1.346,3,3,3c1.302,0,2.402-0.839,2.816-2h7.75C11.598,7.973,7.419,13.982,7.051,21H5c-0.553,0-1,0.447-1,1v6
			c0,0.553,0.447,1,1,1h2c0,2.757-2.243,5-5,5H1c-0.306,0-0.595,0.14-0.784,0.379c-0.189,0.239-0.259,0.553-0.189,0.851
			l3.717,15.796C2.211,51.159,1,52.434,1,54c0,1.208,0.722,2.246,1.754,2.721l-1.716,6.005c-0.086,0.302-0.025,0.626,0.163,0.877
			C1.391,63.852,1.686,64,2,64h12c0.313,0,0.609-0.148,0.799-0.398c0.189-0.251,0.249-0.575,0.163-0.877l-1.716-6.005
			C14.278,56.246,15,55.208,15,54c0-1.566-1.211-2.841-2.743-2.974l3.717-15.796c0.069-0.298,0-0.611-0.189-0.851
			C15.595,34.14,15.306,34,15,34h-1c-2.757,0-5-2.243-5-5h2c0.553,0,1-0.447,1-1v-6c0-0.553-0.447-1-1-1H9.051
			C9.553,12.425,16.425,5.553,25,5.051V7c0,0.553,0.447,1,1,1h6c0.553,0,1-0.447,1-1V5.051C41.575,5.553,48.447,12.425,48.949,21H47
			c-0.553,0-1,0.447-1,1v6c0,0.553,0.447,1,1,1h6c0.553,0,1-0.447,1-1v-6C54,21.447,53.553,21,53,21z M51,3c0.552,0,1,0.448,1,1
			s-0.448,1-1,1s-1-0.448-1-1S50.448,3,51,3z M7,5C6.448,5,6,4.552,6,4s0.448-1,1-1s1,0.448,1,1S7.552,5,7,5z M3.326,62l1.428-5
			h6.492l1.428,5H3.326z M13,54c0,0.552-0.448,1-1,1H4c-0.552,0-1-0.448-1-1s0.448-1,1-1h1h6h1C12.552,53,13,53.448,13,54z
			 M13.738,35.995L10.208,51H5.792l-3.53-15.005C4.116,35.927,5.785,35.13,7,33.888V42h2v-8.112
			C10.215,35.13,11.884,35.927,13.738,35.995z M10,23v4H6v-4H10z M31,6h-4V2h4V6z M52,27h-4v-4h4V27z"/>
	</g>
</g>
<g>
	<g>
		<path d="M40,39c-0.553,0-1,0.447-1,1v10h2v-9h9v-2H40z"/>
	</g>
</g>
<g>
	<g>
		<path d="M55.293,38.293l-17,17l1.414,1.414L43.414,53H53c0.553,0,1-0.447,1-1v-9.586l2.707-2.707L55.293,38.293z M52,51h-6.586
			L52,44.414V51z"/>
	</g>
</g>
<g>
	<g>
		<rect x="62" y="40" width="2" height="2"/>
	</g>
</g>
<g>
	<g>
		<rect x="62" y="44" width="2" height="2"/>
	</g>
</g>
<g>
	<g>
		<rect x="62" y="48" width="2" height="2"/>
	</g>
</g>
<g>
	<g>
		<rect x="58" y="44" width="2" height="2"/>
	</g>
</g>
<g>
	<g>
		<rect x="58" y="48" width="2" height="2"/>
	</g>
</g>
<g>
	<g>
		<rect x="58" y="52" width="2" height="2"/>
	</g>
</g>
<g>
</g>
<g>
</g>
<g>
</g>
<g>
</g>
<g>
</g>
<g>
</g>
<g>
</g>
<g>
</g>
<g>
</g>
<g>
</g>
<g>
</g>
<g>
</g>
<g>
</g>
<g>
</g>
<g>
</g>
</svg>
