<?xml version="1.0" encoding="iso-8859-1"?>
<!-- Generator: Adobe Illustrator 17.1.0, SVG Export Plug-In . SVG Version: 6.00 Build 0)  -->
<!DOCTYPE svg PUBLIC "-//W3C//DTD SVG 1.1//EN" "http://www.w3.org/Graphics/SVG/1.1/DTD/svg11.dtd">
<svg version="1.1" id="Capa_1" xmlns="http://www.w3.org/2000/svg" xmlns:xlink="http://www.w3.org/1999/xlink" x="0px" y="0px"
	 viewBox="0 0 512 512" style="enable-background:new 0 0 512 512;" xml:space="preserve">
<g>
	<path d="M392,176c-13.234,0-24,10.767-24,24s10.766,24,24,24s24-10.767,24-24S405.234,176,392,176z M392,208c-4.411,0-8-3.589-8-8
		s3.589-8,8-8s8,3.589,8,8S396.411,208,392,208z"/>
	<path d="M480,200h-12.762c-14.39-34.843-40.439-65.586-75.238-88.41V24c0-4.418-3.582-8-8-8c-36.43,0-66.627,27.195-71.356,62.351
		C293.935,74.134,274.925,72,256,72c-59.595,0-115.68,19.817-157.923,55.802c-21.863,18.624-38.671,40.432-49.871,64.209
		C48.137,192.009,48.07,192,48,192c-17.645,0-32-14.355-32-32c0-6.99,2.212-13.63,6.396-19.199
		c2.654-3.533,1.942-8.548-1.591-11.202c-3.532-2.654-8.547-1.94-11.201,1.591C3.321,139.554,0,149.516,0,160
		c0,24.354,18.234,44.514,41.765,47.582C35.334,225.622,32,244.586,32,264c0,63.033,35.793,121.628,96,157.588V464
		c0,17.645,14.355,32,32,32h16c17.645,0,32-14.355,32-32v-12.45c31.59,5.921,64.659,5.889,96,0.031V464c0,17.645,14.355,32,32,32h16
		c17.645,0,32-14.355,32-32v-42.479c33.294-19.88,59.246-46.594,75.747-77.521H480c17.645,0,32-14.355,32-32v-80
		C512,214.355,497.645,200,480,200z M496,312c0,8.822-7.178,16-16,16h-12.724c2.937-7.153,5.398-14.49,7.348-21.985
		c1.113-4.275-1.452-8.645-5.728-9.757c-4.276-1.111-8.644,1.451-9.757,5.728c-2.693,10.347-6.466,20.369-11.219,29.987
		c-0.193,0.33-0.365,0.672-0.509,1.03c-15.641,31.085-41.692,57.833-75.683,77.152c-3.267,1.856-4.752,5.692-3.728,9.194V464
		c0,8.822-7.178,16-16,16h-16c-8.822,0-16-7.178-16-16v-22.246c0-2.435-1.108-4.736-3.011-6.254
		c-1.903-1.519-4.394-2.089-6.767-1.546C292.626,437.966,274.384,440,256,440c-18.29,0-36.532-2.046-54.221-6.081
		c-2.375-0.545-4.865,0.027-6.768,1.546c-1.903,1.518-3.012,3.819-3.012,6.254V464c0,8.822-7.178,16-16,16h-16
		c-8.822,0-16-7.178-16-16l0.001-47.004c0-2.873-1.541-5.525-4.037-6.949C82.379,377.206,48,322.609,48,264
		c0-97.047,93.309-176,208-176c18.711,0,37.518,2.235,56,6.633V104c0,4.418,3.582,8,8,8s8-3.582,8-8V90.521
		c0.371-1.387,0.375-2.802,0.022-4.119c0.774-27.443,21.39-50.012,47.978-53.832v79.598c-1.672,3.638-0.394,7.987,3.041,10.127
		c35.622,22.193,61.8,53.025,75.076,87.999c0.1,0.333,0.222,0.655,0.362,0.968c1.799,4.838,3.359,9.751,4.656,14.733
		c1.113,4.276,5.482,6.839,9.757,5.727c4.276-1.113,6.839-5.482,5.726-9.758c-0.521-1.999-1.091-3.984-1.685-5.963H480
		c8.822,0,16,7.178,16,16V312z"/>
	<path d="M256,208c14.537,0,27.995,6.931,31.309,16.132C287.768,225.398,288,226.7,288,228c0,13.233,10.766,24,24,24
		s24-10.767,24-24c0-6.854-1.189-13.633-3.536-20.149c-7.873-21.851-27.438-38.258-52.966-44.746
		C277.232,152.21,267.557,144,256,144c-11.533,0-21.191,8.178-23.484,19.038c-14.871,3.895-28.288,11.493-38.259,21.755
		C182.484,196.911,176,212.255,176,228c0,37.495,35.888,68,80,68c15.105,0,32,8.553,32,20s-16.895,20-32,20s-32-8.553-32-20
		c0-13.233-10.766-24-24-24s-24,10.767-24,24c0,15.745,6.484,31.089,18.257,43.207c9.971,10.262,23.388,17.86,38.259,21.755
		C234.809,391.822,244.467,400,256,400s21.191-8.178,23.484-19.038c14.871-3.895,28.288-11.493,38.259-21.755
		C329.516,347.089,336,331.745,336,316c0-37.495-35.888-68-80-68c-15.105,0-32-8.553-32-20S240.895,208,256,208z M256,264
		c35.29,0,64,23.327,64,52c0,23.865-20.815,45.144-49.494,50.596c-3.774,0.718-6.506,4.018-6.506,7.859V376c0,4.411-3.589,8-8,8
		s-8-3.589-8-8v-1.545c0-3.842-2.731-7.142-6.506-7.859C212.815,361.144,192,339.865,192,316c0-4.411,3.589-8,8-8s8,3.589,8,8
		c0,19.851,21.533,36,48,36s48-16.149,48-36s-21.533-36-48-36c-35.29,0-64-23.327-64-52c0-23.865,20.815-45.144,49.494-50.596
		c3.774-0.718,6.506-4.018,6.506-7.859V168c0-4.411,3.589-8,8-8s8,3.589,8,8v1.643c0,3.853,2.746,7.158,6.533,7.864
		c22.477,4.191,40.439,17.896,46.877,35.767C319.129,218.044,320,222.999,320,228c0,4.411-3.589,8-8,8s-8-3.589-8-8
		c0-3.161-0.554-6.295-1.641-9.301C296.696,202.979,277.633,192,256,192c-26.467,0-48,16.149-48,36S229.533,264,256,264z"/>
	<path d="M164.703,123.249c-25.424,11.485-47.799,27.919-64.708,47.523c-2.886,3.346-2.513,8.396,0.833,11.282
		c1.512,1.304,3.371,1.942,5.222,1.942c2.246,0,4.479-0.94,6.062-2.775c15.398-17.854,35.862-32.858,59.179-43.393
		c4.027-1.818,5.816-6.558,3.997-10.584C173.468,123.22,168.731,121.428,164.703,123.249z"/>
	<path d="M197.049,128c0.714,0,1.44-0.097,2.162-0.298c5.959-1.669,12.095-3.088,18.237-4.217c4.346-0.799,7.221-4.969,6.422-9.314
		s-4.968-7.22-9.314-6.422c-6.619,1.217-13.233,2.746-19.659,4.545c-4.254,1.191-6.738,5.606-5.546,9.861
		C190.339,125.688,193.551,128,197.049,128z"/>
</g>
<g>
</g>
<g>
</g>
<g>
</g>
<g>
</g>
<g>
</g>
<g>
</g>
<g>
</g>
<g>
</g>
<g>
</g>
<g>
</g>
<g>
</g>
<g>
</g>
<g>
</g>
<g>
</g>
<g>
</g>
</svg>
