<?xml version="1.0" encoding="iso-8859-1"?>
<!-- Generator: Adobe Illustrator 19.0.0, SVG Export Plug-In . SVG Version: 6.00 Build 0)  -->
<svg version="1.1" id="Layer_1" xmlns="http://www.w3.org/2000/svg" xmlns:xlink="http://www.w3.org/1999/xlink" x="0px" y="0px"
	 viewBox="0 0 366.803 366.803" style="enable-background:new 0 0 366.803 366.803;" xml:space="preserve">
<g>
	<g>
		<path d="M366.32,266.272c0.4-0.8,0.4-1.6,0.4-2.8v-231.2c0-12.4-9.6-22.8-22-24c-0.4,0-0.4,0-0.8,0h-2.4
			c-70.8-4.8-142.4,8.8-206.4,40c-0.4,0-0.4,0.4-0.8,0.4l-1.6,0.8c-13.6,6.4-22.4,20.4-22.4,36v188.8c-3.6-2.8-8-5.2-13.2-6.8
			c-13.6-4.8-30-5.2-46-0.8c-34.8,9.2-56.4,36.4-50,61.2c3.2,12.4,13.2,22.4,28,27.6c7.2,2.4,15.2,4,23.6,4c7.2,0,14.8-1.2,22.4-3.2
			c33.2-8.8,54.4-34,50.4-58c0.4-0.8,0.4-1.6,0.4-2.8v-145.2l15.6-7.6c61.2-29.6,130-43.2,198.4-38.8l10,0.8v137.6
			c-3.6-2.8-8-5.2-13.2-6.8c-13.6-4.8-30-5.2-46-0.8c-34.8,9.2-56.4,36.4-50,61.2c5.2,19.6,26,31.2,51.2,31.2
			c7.2,0,14.8-0.8,22.8-3.2C349.12,315.472,370.32,290.272,366.32,266.272z M71.52,341.072c-12.8,3.6-26,3.2-36.4-0.4
			c-9.6-3.2-16-9.2-18-16.4c-4.4-16,13.2-35.2,38.4-41.6c6-1.6,12.4-2.4,18.4-2.4c6.4,0,12.4,0.8,18,2.8c9.6,3.2,16,9.2,18,16.4
			C114.32,315.072,96.72,334.272,71.52,341.072z M341.52,87.872c-71.2-4.4-142.4,9.6-206.4,40.4l-8.4,4v-46.8
			c0-9.6,5.2-17.6,13.2-21.6c0.4,0,0.4-0.4,0.8-0.4l1.6-1.2c61.6-29.6,130-42.8,198-38.4h0.4h2.4c4.4,0.4,7.2,4,7.2,8v56.4
			L341.52,87.872z M311.52,309.072c-25.2,6.8-50-1.2-54.4-16.8c-4.4-16,13.2-35.2,38.4-41.6c6-1.6,12.4-2.4,18.4-2.4
			c6.4,0,12.4,0.8,18,2.8c9.6,3.2,16,9.2,18,16.4C354.32,283.072,336.72,302.272,311.52,309.072z"/>
	</g>
</g>
<g>
</g>
<g>
</g>
<g>
</g>
<g>
</g>
<g>
</g>
<g>
</g>
<g>
</g>
<g>
</g>
<g>
</g>
<g>
</g>
<g>
</g>
<g>
</g>
<g>
</g>
<g>
</g>
<g>
</g>
</svg>
