<?xml version="1.0" encoding="iso-8859-1"?>
<!-- Generator: Adobe Illustrator 19.0.0, SVG Export Plug-In . SVG Version: 6.00 Build 0)  -->
<svg version="1.1" id="Layer_1" xmlns="http://www.w3.org/2000/svg" xmlns:xlink="http://www.w3.org/1999/xlink" x="0px" y="0px"
	 viewBox="0 0 496 496" style="enable-background:new 0 0 496 496;" xml:space="preserve">
<g>
	<g>
		<g>
			<path d="M473.408,133.664L448,129.752V32H248V0h-48v32H0v320h85.48l-40,144h64.6l17.776-64h192.288l17.776,64h64.6l-40-144H448
				V190.248l25.408-3.912C486.504,184.328,496,173.248,496,160S486.504,135.672,473.408,133.664z M216,16h16v16h-16V16z M97.92,480
				h-31.4l35.552-128h31.4L97.92,480z M132.304,416l4.448-16H264v-16H141.192l8.888-32h147.84l8.888,32H280v16h31.256l4.448,16
				H132.304z M381.48,480h-31.4l-35.552-128h31.4L381.48,480z M432,336h-73.92h-64.6H154.52h-64.6H16V48h184h48h184v79.288
				l-18.968-2.92c-18.864-2.896-38.096-4.368-57.176-4.368H153.632c-5.24-2.176-21.76-8-49.632-8c-43.344,0-76.84,41.248-78.248,43
				l-3.992,5l3.992,5c1.408,1.752,34.904,43,78.248,43c27.872,0,44.392-5.824,49.632-8h202.224c19.08,0,38.312-1.472,57.168-4.368
				l18.976-2.92V336z M144,133.504v52.984c-6.376,2.12-19.656,5.512-40,5.512c-27.512,0-51.608-21.888-61.264-32
				c9.656-10.112,33.752-32,61.264-32C124.36,128,137.648,131.392,144,133.504z M470.968,170.528l-60.376,9.288
				c-18.048,2.776-36.464,4.184-54.736,4.184H160v-48h195.856c18.264,0,36.688,1.408,54.736,4.184l60.376,9.288
				C476.2,150.28,480,154.704,480,160S476.2,169.72,470.968,170.528z"/>
			<rect x="400" y="304" width="16" height="16"/>
			<rect x="400" y="272" width="16" height="16"/>
			<rect x="368" y="304" width="16" height="16"/>
			<rect x="336" y="304" width="16" height="16"/>
			<rect x="368" y="272" width="16" height="16"/>
			<rect x="400" y="240" width="16" height="16"/>
		</g>
	</g>
</g>
<g>
</g>
<g>
</g>
<g>
</g>
<g>
</g>
<g>
</g>
<g>
</g>
<g>
</g>
<g>
</g>
<g>
</g>
<g>
</g>
<g>
</g>
<g>
</g>
<g>
</g>
<g>
</g>
<g>
</g>
</svg>
