<?xml version="1.0" encoding="iso-8859-1"?>
<!-- Generator: Adobe Illustrator 18.0.0, SVG Export Plug-In . SVG Version: 6.00 Build 0)  -->
<!DOCTYPE svg PUBLIC "-//W3C//DTD SVG 1.1//EN" "http://www.w3.org/Graphics/SVG/1.1/DTD/svg11.dtd">
<svg version="1.1" id="Capa_1" xmlns="http://www.w3.org/2000/svg" xmlns:xlink="http://www.w3.org/1999/xlink" x="0px" y="0px"
	 viewBox="0 0 75.457 75.457" style="enable-background:new 0 0 75.457 75.457;" xml:space="preserve">
<path style="fill:#231F20;" d="M75.201,33.956c-0.369-0.413-1.002-0.444-1.412-0.076l-1.962,1.761l-10.64-10.55
	c-0.392-0.388-1.024-0.387-1.414,0.006c-0.389,0.392-0.387,1.025,0.006,1.414l10.558,10.468L65.11,41.67L47.726,24.062l17.28-16.347
	c0.401-0.38,0.419-1.013,0.039-1.414c-0.381-0.402-1.013-0.417-1.414-0.04L45.609,23.311c-0.195,0.185-0.308,0.44-0.313,0.709
	c-0.005,0.269,0.1,0.528,0.288,0.72l1.601,1.622l-3.527,3.69l-6.803-0.725c-0.301-0.036-0.596,0.072-0.81,0.284l-2.765,2.741
	l-5.14-5.077l1.732-1.754c0.188-0.191,0.293-0.451,0.288-0.72c-0.005-0.269-0.117-0.524-0.313-0.709L11.826,7.043
	c-0.4-0.378-1.034-0.363-1.414,0.04c-0.38,0.401-0.362,1.034,0.039,1.414L22.612,20L4.803,37.475l-3.135-2.813
	c-0.41-0.368-1.043-0.335-1.412,0.076c-0.369,0.411-0.335,1.043,0.076,1.412l9.389,8.427c0.19,0.171,0.43,0.256,0.668,0.256
	c0.259,0,0.517-0.1,0.712-0.297l1.701-1.723l9.351,9.223l-1.718,1.747c-0.385,0.392-0.383,1.02,0.006,1.408l3.506,3.506
	c0,0,0.002,0.001,0.002,0.002s0.001,0.002,0.002,0.002l3.507,3.467l3.502,3.503l3.506,3.506c0.195,0.195,0.451,0.293,0.707,0.293
	c0.256,0,0.512-0.098,0.707-0.293l1.814-1.814l1.844,1.819c0.194,0.192,0.448,0.288,0.702,0.288c0.256,0,0.512-0.098,0.707-0.293
	l2.799-2.799l0.413,0.413c0.195,0.195,0.451,0.293,0.707,0.293s0.512-0.098,0.707-0.293l2.799-2.799l0.413,0.413
	c0.195,0.195,0.451,0.293,0.707,0.293s0.512-0.098,0.707-0.293l2.799-2.799l0.412,0.412c0.195,0.195,0.451,0.293,0.707,0.293
	s0.512-0.098,0.707-0.293l3.506-3.506c0.391-0.391,0.391-1.023,0-1.414l-5.206-5.206l9.409-9.983l1.824,1.848
	c0.195,0.198,0.453,0.297,0.712,0.297c0.238,0,0.478-0.085,0.668-0.256l9.389-8.427C75.536,34.999,75.57,34.367,75.201,33.956z
	 M24.625,34.513c0,2.413-1.963,4.375-4.375,4.375c-0.96,0-1.882-0.316-2.634-0.884l6.125-6.126
	C24.309,32.631,24.625,33.553,24.625,34.513z M25.159,30.46l1.669-1.669l0.902,0.891l-1.838,1.882
	C25.688,31.173,25.443,30.803,25.159,30.46z M10.347,42.451l-4.053-3.638l17.772-17.438l3.666,3.468L10.347,42.451z M16.198,39.422
	c0.354,0.293,0.736,0.544,1.142,0.753c-0.317,0.326-0.644,0.665-0.973,1.005c-0.398,0.411-0.786,0.81-1.161,1.195l-0.987-0.973
	L16.198,39.422z M23.577,53.439l2.102,2.073l-1.033,1.055l-2.09-2.09L23.577,53.439z M28.156,60.046l-2.089-2.065l1.043-1.057
	l2.098,2.069L28.156,60.046z M30.632,60.398l2.106,2.077l-1.073,1.073l-2.092-2.092L30.632,60.398z M35.172,67.054l-2.092-2.092
	l1.083-1.083l2.106,2.078L35.172,67.054z M54.116,59.894l-0.412-0.412l0,0l-4.037-4.037c0,0-0.001,0-0.001-0.001l-1.227-1.227
	c-0.391-0.391-1.023-0.391-1.414,0s-0.391,1.023,0,1.414l4.559,4.558l-2.092,2.092l-5.678-5.678c-0.391-0.391-1.023-0.391-1.414,0
	s-0.391,1.023,0,1.414l1.229,1.229l3.329,3.33l-2.092,2.092l-3.283-3.282l-1.167-1.167c0,0-0.001,0-0.001-0.001l-1.227-1.227
	c-0.391-0.391-1.023-0.391-1.414,0s-0.391,1.023,0,1.414l2.295,2.295l2.263,2.263l-2.097,2.097L16.63,43.779
	c0.379-0.389,0.772-0.794,1.173-1.209c0.589-0.608,1.169-1.207,1.685-1.731c0.252,0.03,0.505,0.049,0.762,0.049
	c3.516,0,6.375-2.86,6.375-6.375c0-0.263-0.02-0.523-0.052-0.781l2.581-2.644l2.707,2.673l-9.44,9.361
	c-0.203,0.201-0.31,0.479-0.294,0.765s0.152,0.55,0.376,0.728c0.233,0.187,5.709,4.334,15.217-5.302l18.488,18.489L54.116,59.894z
	 M51.708,50.475L38.413,37.179c-0.191-0.191-0.428-0.297-0.723-0.293c-0.271,0.004-0.527,0.118-0.713,0.315
	c-6.134,6.527-10.243,6.725-12.096,6.297l12.234-12.132l4.797,0.511l-0.72,0.754c-0.382,0.399-0.367,1.032,0.031,1.414
	c0.399,0.381,1.031,0.368,1.414-0.032l5.748-6.013l12.615,12.615L51.708,50.475z M53.457,21.766c0,1.723,1.402,3.125,3.125,3.125
	s3.125-1.402,3.125-3.125s-1.402-3.125-3.125-3.125S53.457,20.043,53.457,21.766z M57.707,21.766c0,0.62-0.505,1.125-1.125,1.125
	s-1.125-0.505-1.125-1.125s0.505-1.125,1.125-1.125S57.707,21.146,57.707,21.766z"/>
<g>
</g>
<g>
</g>
<g>
</g>
<g>
</g>
<g>
</g>
<g>
</g>
<g>
</g>
<g>
</g>
<g>
</g>
<g>
</g>
<g>
</g>
<g>
</g>
<g>
</g>
<g>
</g>
<g>
</g>
</svg>
