<?xml version="1.0" encoding="iso-8859-1"?>
<!-- Generator: Adobe Illustrator 19.0.0, SVG Export Plug-In . SVG Version: 6.00 Build 0)  -->
<svg version="1.1" id="Layer_1" xmlns="http://www.w3.org/2000/svg" xmlns:xlink="http://www.w3.org/1999/xlink" x="0px" y="0px"
	 viewBox="0 0 178.657 178.657" style="enable-background:new 0 0 178.657 178.657;" xml:space="preserve">
<g>
	<g>
		<g>
			<path d="M174.207,50.772L97.098,11.265c-4.431-2.273-11.109-2.273-15.541,0L4.449,50.772C1.622,52.22-0.003,54.501,0,57.032
				c0,2.531,1.622,4.812,4.448,6.26l23.215,11.894c-0.001,0.034-0.019,0.063-0.019,0.097v45.169c0,1.211,0.631,2.335,1.663,2.966
				c0.964,0.587,24.027,14.407,60.88,14.407c17.202,0,31.347-3.015,41.695-6.285v10.253c-5.978,1.553-10.424,6.947-10.424,13.405
				c0,7.665,6.233,13.898,13.898,13.898s13.898-6.233,13.898-13.898c0-6.458-4.446-11.851-10.424-13.405v-12.672
				c7.52-2.894,11.833-5.458,12.236-5.704c1.032-0.631,1.663-1.754,1.663-2.966V75.284c0-0.318-0.101-0.603-0.18-0.894
				l21.659-11.097c2.827-1.449,4.452-3.729,4.449-6.26C178.656,54.501,177.034,52.22,174.207,50.772z M131.88,124.202
				c-9.924,3.341-24.181,6.675-41.694,6.675c-29.371,0-49.808-9.453-55.593-12.477V78.737l46.964,24.062
				c2.216,1.137,4.991,1.703,7.77,1.703c2.779,0,5.554-0.567,7.77-1.703l34.783-17.821V124.202z M142.305,155.199
				c0,3.831-3.118,6.949-6.949,6.949s-6.949-3.118-6.949-6.949s3.118-6.949,6.949-6.949
				C139.187,148.25,142.305,151.368,142.305,155.199z M145.78,118.407c-1.437,0.754-3.782,1.908-6.949,3.214V82.233
				c0-0.262-0.094-0.493-0.149-0.739l7.098-3.636V118.407z M171.038,57.11L93.929,96.617c-2.409,1.235-6.793,1.235-9.202,0
				L7.618,57.11c-0.051-0.027-0.098-0.054-0.146-0.078c0.048-0.024,0.095-0.051,0.146-0.078l77.109-39.506
				c2.409-1.235,6.793-1.235,9.202,0l77.109,39.506c0.051,0.027,0.098,0.054,0.146,0.078
				C171.136,57.056,171.089,57.083,171.038,57.11z"/>
			<path d="M51.6,49.408c-0.862-1.717-2.945-2.409-4.662-1.554L33.04,54.803c-1.717,0.859-2.412,2.945-1.554,4.662
				c0.611,1.218,1.836,1.92,3.111,1.92c0.523,0,1.052-0.119,1.551-0.367l13.898-6.949C51.763,53.211,52.458,51.125,51.6,49.408z"/>
			<path d="M60.836,54.803l-13.898,6.949c-1.717,0.859-2.412,2.945-1.554,4.662c0.611,1.218,1.836,1.92,3.111,1.92
				c0.523,0,1.052-0.119,1.551-0.367l13.898-6.949c1.717-0.859,2.412-2.945,1.554-4.662C64.64,54.64,62.552,53.955,60.836,54.803z"
				/>
		</g>
	</g>
</g>
<g>
</g>
<g>
</g>
<g>
</g>
<g>
</g>
<g>
</g>
<g>
</g>
<g>
</g>
<g>
</g>
<g>
</g>
<g>
</g>
<g>
</g>
<g>
</g>
<g>
</g>
<g>
</g>
<g>
</g>
</svg>
