<?xml version="1.0" ?><svg width="35px" height="35px" viewBox="0 0 35 35" data-name="Layer 2" id="a57b1084-392d-4dd3-9105-7399e5d250c4" xmlns="http://www.w3.org/2000/svg"><path d="M7.486,33.076a3.164,3.164,0,0,1-3.164-3.165V5.089A3.164,3.164,0,0,1,9.249,2.461L27.754,14.872a3.165,3.165,0,0,1,0,5.256L9.249,32.539h0A3.156,3.156,0,0,1,7.486,33.076ZM8.552,31.5h0ZM7.491,4.422a.7.7,0,0,0-.317.08.652.652,0,0,0-.352.587V29.911a.664.664,0,0,0,1.034.552L26.362,18.052a.66.66,0,0,0,.294-.553.646.646,0,0,0-.294-.55L7.856,4.537A.649.649,0,0,0,7.491,4.422Z"/></svg>