<svg width="24px" height="24px" viewBox="0 0 24 24" fill="none" xmlns="http://www.w3.org/2000/svg">
<g id="Iconly/Curved/Work">
<g id="Work">
<path id="Stroke 1" d="M11.9612 16.5167V13.8887" stroke="#130F26" stroke-width="1.5" stroke-linecap="round" stroke-linejoin="round"/>
<path id="Stroke 2" d="M21.0895 11.4775L21.0605 11.4985C18.6385 12.9905 15.4405 13.8915 11.9565 13.8915C8.47252 13.8915 5.28352 12.9905 2.86252 11.4985L2.83252 11.4775" stroke="#130F26" stroke-width="1.5" stroke-linecap="round" stroke-linejoin="round"/>
<path id="Stroke 4" fill-rule="evenodd" clip-rule="evenodd" d="M2.75024 13.3507C2.75024 7.19871 5.05324 5.14771 11.9612 5.14771C18.8702 5.14771 21.1722 7.19871 21.1722 13.3507C21.1722 19.5027 18.8702 21.5537 11.9612 21.5537C5.05324 21.5537 2.75024 19.5027 2.75024 13.3507Z" stroke="#130F26" stroke-width="1.5" stroke-linecap="round" stroke-linejoin="round"/>
<path id="Stroke 6" d="M15.2239 5.3692V4.7392C15.2239 3.4752 14.3009 2.4502 13.1639 2.4502H10.7589C9.62185 2.4502 8.69885 3.4752 8.69885 4.7392V5.3692" stroke="#130F26" stroke-width="1.5" stroke-linecap="round" stroke-linejoin="round"/>
</g>
</g>
</svg>
